<svg width="211" height="269" viewBox="0 0 211 269" fill="none" xmlns="http://www.w3.org/2000/svg">
<path d="M194.8 214.605L211 234.605L174.5 268.304C174.5 268.304 170.2 263.604 173 258.804C174.4 256.304 175.7 251.905 176 247.105C176 246.805 176 246.405 176.1 246.105C176.2 244.905 176.2 243.705 176.1 242.505C176.1 242.205 176 241.805 176 241.505C175.7 238.805 175 236.205 173.8 234.005L194.8 214.605Z" fill="#5F5FFF"/>
<path d="M185.5 241.205C182.4 241.605 179.2 242.105 176.1 242.605C176.1 242.305 176 241.905 176 241.605C179.1 241.205 182.2 240.704 185.3 240.304C185.9 240.104 186.1 241.105 185.5 241.205Z" fill="#FF3E6C"/>
<path d="M184.6 246.804C181.8 246.904 178.9 247.005 176.1 247.105C176.1 246.805 176.1 246.405 176.2 246.105C179 246.005 181.9 245.904 184.7 245.804C185.3 245.804 185.2 246.804 184.6 246.804Z" fill="#FF3E6C"/>
<path d="M124.9 239.605L123.2 265.304H73.5C73.5 265.304 73.5 259.004 78.8 257.304C81.5 256.504 85.5 254.004 89 250.804C89.2 250.604 89.5 250.405 89.7 250.105C90.5 249.305 91.4 248.405 92.1 247.505C92.3 247.205 92.5 247.005 92.7 246.705C94.3 244.505 95.6 242.105 96.1 239.705H124.9V239.605Z" fill="#5F5FFF"/>
<path d="M128.9 119.404C129.2 181.604 162.4 234.904 172.9 241.404L200.3 218.904C200.3 218.904 183 197.605 177.9 179.605C172.8 161.605 164.5 111.305 164.5 111.305L128.9 119.404Z" fill="#FFCC3E"/>
<path d="M105.5 124.204C105.5 147.604 92.5 240.804 92.5 240.804L130.1 246.104C130.1 246.104 139.9 153.204 139.7 140.904C139.5 128.604 134.5 113.104 134.5 113.104L105.5 124.204Z" fill="#FFCC3E"/>
<path d="M156.7 118.805C156.4 118.805 156.1 118.605 156 118.305C155.6 117.405 155.2 116.505 154.8 115.605C154.6 115.205 154.8 114.805 155.2 114.605C155.6 114.405 156 114.605 156.2 115.005C156.6 115.905 157 116.805 157.4 117.805C157.6 118.205 157.4 118.605 157 118.805C156.9 118.805 156.8 118.805 156.7 118.805Z" fill="white"/>
<path d="M185.2 215.705C184.9 215.705 184.7 215.605 184.5 215.305C183.5 213.605 182.5 211.705 181.5 209.705C181.3 209.305 181.5 208.905 181.8 208.705C182.2 208.505 182.6 208.705 182.8 209.005C183.8 211.005 184.8 212.805 185.8 214.505C186 214.905 185.9 215.305 185.5 215.505C185.4 215.705 185.3 215.705 185.2 215.705ZM179.4 204.405C179.1 204.405 178.8 204.205 178.7 204.005C177.8 202.105 177 200.205 176.1 198.205C175.9 197.805 176.1 197.405 176.5 197.205C176.9 197.005 177.3 197.205 177.5 197.605C178.3 199.605 179.2 201.505 180 203.405C180.2 203.805 180 204.205 179.6 204.405C179.6 204.405 179.5 204.405 179.4 204.405ZM174.5 192.705C174.2 192.705 173.9 192.505 173.8 192.205C173.1 190.305 172.5 188.305 171.8 186.105C171.7 185.705 171.9 185.305 172.3 185.205C172.7 185.105 173.1 185.305 173.2 185.705C173.8 187.805 174.5 189.905 175.1 191.705C175.2 192.105 175 192.505 174.7 192.705C174.7 192.705 174.6 192.705 174.5 192.705ZM171 180.505C170.7 180.505 170.4 180.305 170.3 179.905C169.8 178.005 169.4 175.905 168.9 173.705C168.8 173.305 169.1 172.905 169.5 172.805C169.9 172.705 170.3 173.005 170.4 173.405C170.9 175.605 171.3 177.705 171.8 179.605C171.9 180.005 171.6 180.405 171.2 180.505C171.1 180.505 171.1 180.505 171 180.505ZM168.4 168.105C168 168.105 167.7 167.805 167.7 167.505C167.3 165.405 166.9 163.405 166.6 161.305C166.5 160.905 166.8 160.505 167.2 160.405C167.6 160.305 168 160.605 168.1 161.005C168.5 163.105 168.8 165.205 169.2 167.205C169.3 167.605 169 168.005 168.6 168.105C168.5 168.105 168.5 168.105 168.4 168.105ZM166.2 155.605C165.8 155.605 165.5 155.305 165.5 155.005C165.1 152.905 164.7 150.805 164.4 148.805C164.3 148.405 164.6 148.005 165 147.905C165.4 147.805 165.8 148.105 165.9 148.505C166.3 150.605 166.7 152.705 167 154.805C167.1 155.205 166.8 155.605 166.4 155.705C166.3 155.605 166.2 155.605 166.2 155.605ZM163.8 143.205C163.5 143.205 163.1 143.005 163.1 142.605C162.6 140.405 162.2 138.405 161.7 136.405C161.6 136.005 161.9 135.605 162.3 135.505C162.7 135.405 163.1 135.705 163.2 136.105C163.7 138.105 164.1 140.105 164.6 142.305C164.7 142.705 164.4 143.105 164 143.205C163.9 143.105 163.9 143.205 163.8 143.205ZM160.8 130.805C160.5 130.805 160.2 130.605 160.1 130.305C159.5 128.205 158.9 126.205 158.2 124.305C158.1 123.905 158.3 123.505 158.7 123.305C159.1 123.205 159.5 123.405 159.7 123.805C160.3 125.705 161 127.805 161.6 129.905C161.7 130.305 161.5 130.705 161.1 130.805C161 130.805 160.9 130.805 160.8 130.805Z" fill="white"/>
<path d="M190.4 223.505C190.2 223.505 190 223.404 189.8 223.304C189.8 223.304 189.1 222.504 187.9 220.804C187.7 220.504 187.7 220.004 188.1 219.804C188.4 219.604 188.9 219.605 189.1 220.005C190.2 221.605 190.8 222.304 190.9 222.304C191.2 222.604 191.1 223.104 190.8 223.404C190.7 223.404 190.5 223.505 190.4 223.505Z" fill="white"/>
<path d="M100 252.804C97.4 251.004 94.8 249.204 92.2 247.404C92.4 247.104 92.6 246.905 92.8 246.605C95.4 248.405 98 250.204 100.5 251.904C101 252.304 100.5 253.204 100 252.804Z" fill="#FF3E6C"/>
<path d="M95.5 256.304C93.4 254.404 91.2 252.605 89 250.705C89.2 250.505 89.5 250.305 89.7 250.005C91.8 251.905 94 253.705 96.2 255.505C96.7 256.005 96 256.704 95.5 256.304Z" fill="#FF3E6C"/>
<path d="M136.5 167.605C136.2 167.605 135.9 167.405 135.8 167.105C133.7 162.005 131.3 140.405 130.8 136.505C129.8 136.405 127.3 136.005 122.8 135.105C122.4 135.005 122.1 134.605 122.2 134.205C122.3 133.805 122.7 133.505 123.1 133.605C129.2 134.805 131.5 135.105 131.5 135.105L132.1 135.205L132.2 135.805C132.2 136.105 135 161.305 137.1 166.605C137.3 167.005 137.1 167.405 136.7 167.605C136.7 167.605 136.6 167.605 136.5 167.605Z" fill="white"/>
<path d="M136.5 32.6045H8.70001V257.504H136.5V32.6045Z" fill="#F2F2F9"/>
<path d="M128.9 99.3045H37.1V194.705H128.9V99.3045Z" fill="#E4E4EF"/>
<path d="M28 115.804C27.6 115.804 27.2 115.504 27.2 115.004V87.6045H51.7C52.1 87.6045 52.5 87.9045 52.5 88.4045C52.5 88.9045 52.2 89.2045 51.7 89.2045H28.7V115.104C28.8 115.504 28.4 115.804 28 115.804Z" fill="#030047"/>
<path d="M53.2 206.604H25.8V182.104C25.8 181.704 26.1 181.304 26.6 181.304C27.1 181.304 27.4 181.604 27.4 182.104V205.104H53.3C53.7 205.104 54.1 205.404 54.1 205.904C54.1 206.404 53.6 206.604 53.2 206.604Z" fill="#030047"/>
<path d="M72.6 50.0045H28V60.3045H72.6V50.0045Z" fill="#E4E4EF"/>
<path d="M80 60.4045C82.651 60.4045 84.8 58.2555 84.8 55.6045C84.8 52.9535 82.651 50.8045 80 50.8045C77.349 50.8045 75.2 52.9535 75.2 55.6045C75.2 58.2555 77.349 60.4045 80 60.4045Z" fill="#E4E4EF"/>
<path d="M4.5 66.4045H0V119.404H4.5V66.4045Z" fill="#F2F2F9"/>
<path d="M50.3001 135.904C50.1001 135.904 49.9 135.804 49.7 135.604L46.7 132.204C46.4 131.904 46.4001 131.404 46.8001 131.104C47.1001 130.804 47.6 130.804 47.9 131.204L50.9 134.604C51.2 134.904 51.2001 135.404 50.8001 135.704C50.7001 135.804 50.5001 135.904 50.3001 135.904Z" fill="#5F5FFF"/>
<path d="M30.6001 155.004C30.4001 155.004 30.2001 154.904 30.1001 154.804C29.8001 154.504 29.8001 154.004 30.1001 153.704L37 146.504C37.3 146.204 37.8001 146.204 38.1001 146.504C38.4001 146.804 38.4001 147.304 38.1001 147.604L31.2 154.804C30.9 155.004 30.7001 155.004 30.6001 155.004Z" fill="#5F5FFF"/>
<path d="M56.7 180.304C56.4 180.304 56.1 180.104 56 179.904L54.3 176.204C54.1 175.804 54.3 175.404 54.7 175.204C55.1 175.004 55.5 175.204 55.7 175.604L57.4 179.304C57.6 179.704 57.4 180.104 57 180.304C56.9 180.304 56.8 180.304 56.7 180.304Z" fill="#5F5FFF"/>
<path d="M110.8 42.4045C116.2 42.5045 118.9 38.0045 118.8 34.3045C118.7 30.8045 115.2 28.7045 111.3 30.6045C110 31.2045 108.7 32.4045 107.5 34.1045C107.5 34.1045 107.1 35.7045 107.1 37.4045C107.1 39.7045 107.8 42.3045 110.8 42.4045Z" fill="#8FACFF"/>
<path d="M90.7 49.5045C94.8 55.5045 103.3 58.7045 110.1 51.2045C114.7 46.0045 115.1 37.6045 109.7 31.7045C104.2 25.9045 95.5 25.1045 90.3 30.0045C85.1 34.9045 86.2 42.9045 90.7 49.5045Z" fill="#8FACFF"/>
<path d="M99.1437 42.8834C99.3694 42.3793 99.1438 41.7877 98.6397 41.562C98.1356 41.3362 97.544 41.5619 97.3183 42.066C97.0926 42.57 97.3182 43.1616 97.8223 43.3874C98.3264 43.6131 98.918 43.3874 99.1437 42.8834Z" fill="#030047"/>
<path d="M95.8 50.5045C94.5 48.7045 93.5 46.7045 92.7 44.6045C92.5 44.0045 93.4 43.6045 93.6 44.2045C94.3 46.2045 95.3 48.1045 96.5 49.9045C97 50.5045 96.2 51.1045 95.8 50.5045Z" fill="#030047"/>
<path d="M88.9 38.4045C91.9 37.3045 101.1 29.3045 104.6 35.1045C105.5 36.6045 105.5 37.8045 107.2 37.4045C108.8 36.7045 107.6 34.1045 107.6 34.1045C108.8 32.4045 110.1 31.3045 111.4 30.6045C115 24.8045 106.1 17.6045 101.1 21.9045C101.1 21.9045 90 19.2045 86.8 26.1045C81.1 28.4045 79 32.8045 80.2 36.9045C82.3 43.9045 88.9 38.4045 88.9 38.4045Z" fill="#5F5FFF"/>
<path d="M110.7 37.8045C110.6 35.4045 112.1 33.3045 114.4 32.6045C115 32.4045 115.4 33.4045 114.8 33.5045C113 34.0045 111.7 35.7045 111.8 37.6045C111.7 38.3045 110.7 38.4045 110.7 37.8045Z" fill="#030047"/>
<path d="M115.1 51.1045C105 54.5045 96.6001 61.4045 98.8001 90.4045C101 119.405 101.6 126.905 101.6 126.905L166.6 117.705C166.6 117.605 147.6 40.1045 115.1 51.1045Z" fill="#FF3E6C"/>
<path d="M142.2 90.4045C151 90.4045 159.7 90.3045 168.5 90.2045C166 71.1045 149.9 49.3045 123.9 47.0045V65.4045C132.7 65.7045 140.9 79.6045 142.2 90.4045Z" fill="#FF3E6C"/>
<path d="M149.6 26.0045L156.4 7.8045C159.2 0.304502 149.4 -3.3955 146.6 4.1045L139.9 22.0045C143.1 23.2045 146.4 24.6045 149.6 26.0045Z" fill="#030047"/>
<path d="M52.7 266.504C51.4 266.004 50.8 264.504 51.3 263.304L57.4 247.804C57.9 246.504 59.4 245.904 60.6 246.404C61.9 246.904 62.5 248.405 62 249.605L55.9 265.104C55.4 266.404 54 267.004 52.7 266.504Z" fill="#030047"/>
<path d="M81.3001 233.705L156.9 31.1045C163.7 13.2045 135.8 2.5045 129 20.5045L53.4 223.105C50 232.105 49.5 254.505 56.4 257.205C63.4 259.805 77.9001 242.705 81.3001 233.705Z" fill="#5F5FFF"/>
<path d="M127.4 25.0045L124 34.2045C133.2 38.0045 142.4 41.8045 151.5 45.7045L155 36.2045C145.9 32.3045 136.6 28.6045 127.4 25.0045Z" fill="#030047"/>
<path d="M77.1 241.404C79 238.604 80.5 235.904 81.3 233.704L106.6 166.004C97.4 162.204 88.2001 158.504 78.8 155.104L53.4 223.104C52.8 224.804 52.2 227.004 51.8 229.404C60.2 233.604 68.6 237.604 77.1 241.404Z" fill="#030047"/>
<path d="M122.8 104.104C121.3 92.7045 115.7 89.9045 109.9 87.8045C105.5 86.2045 105.2 90.5045 112 95.6045L112.2 103.104L122.8 104.104Z" fill="#8FACFF"/>
<path d="M141.2 86.0045C142.9 92.4045 142.7 98.5045 139.4 101.304C131.1 108.404 116 101.004 107.6 95.0045C99.2 89.0045 98.4 96.0045 98.4 96.0045C92.9 96.5045 94.6 102.304 94.6 102.304C91 106.404 91.7 108.704 108 120.804C126.8 134.704 162.3 133.604 168.1 101.304C169.7 92.7045 167.6 82.4045 162.5 73.1045C155.3 77.0045 148 81.1045 141.2 86.0045Z" fill="#8FACFF"/>
<path d="M102.1 99.6045C101.1 98.8045 100.4 97.8045 100 96.5045C99.8 95.9045 98.9 96.1045 99 96.8045C99.4 98.2045 100.2 99.4045 101.3 100.305C101.9 100.705 102.6 100.005 102.1 99.6045Z" fill="white"/>
<path d="M98.4 105.704C97.2 105.404 96.3 104.504 96 103.304C95.8 102.704 94.9 102.904 95 103.604C95.4 105.104 96.6 106.304 98.1 106.704C98.8 106.804 99 105.804 98.4 105.704Z" fill="white"/>
<path d="M91.6 133.704C85.9 121.404 83.6 101.005 102.3 80.3045C103 79.6045 103.6 78.9045 104.2 78.2045C106 69.9045 108.2 61.8045 112 54.1045C111.4 53.2045 110.8 52.8045 110.8 52.8045C93 60.9045 69.8 73.5045 63.2 106.805C59 127.605 66.5 144.804 77.2 151.804C83.8 156.104 89.1 161.804 92.9 160.304C92.9 160.304 97.5 161.004 100.4 156.304C100.4 156.304 105.2 156.204 104.7 151.505C104 147.005 93.8 138.604 91.6 133.704Z" fill="#8FACFF"/>
<path d="M92.1 95.3045C94.4 90.4045 97.7 87.1045 102.3 82.1045C103 81.4045 103.9 82.1045 104.5 81.3045C106.3 73.0045 108.1 61.7045 111.9 54.1045C111.3 53.2045 110.7 52.8045 110.7 52.8045C99 58.1045 84.9 65.5045 74.8 79.4045C80.4 84.9045 86.2 90.1045 92.1 95.3045Z" fill="#FF3E6C"/>
<path d="M88.3 131.704C99.9 133.004 106.3 136.005 107.9 141.005C109.5 146.005 103.2 143.805 100.1 141.105L94 144.804L88.3 131.704Z" fill="#8FACFF"/>
<path d="M99.8 155.804C97.8 152.104 95.5 148.505 92.9 145.105C92.5 144.605 91.6 145.105 92 145.605C94.6 149.005 96.8 152.504 98.9 156.304C99.2 156.904 100.1 156.404 99.8 155.804Z" fill="white"/>
<path d="M93.9 159.304C92.1 155.104 89.4 151.504 85.7 148.804C85.2 148.404 84.7 149.305 85.2 149.705C88.7 152.205 91.3 155.605 93 159.605C93.2 160.105 94.2 159.904 93.9 159.304Z" fill="white"/>
<path d="M97.8 140.005C97.3 139.805 97.1 139.404 97.1 138.904C97.1 138.304 96.1 138.304 96.1 138.904C96.1 139.704 96.6 140.504 97.3 140.904C97.8 141.104 98.4 140.205 97.8 140.005Z" fill="white"/>
<path d="M98.2 83.4045C97.8 83.4045 97.5 83.1045 97.5 82.8045L96.5 77.0045C96.4 76.6045 96.7 76.2045 97.1 76.1045C97.5 76.0045 97.9 76.3045 98 76.7045L99 82.5045C99.1 82.9045 98.8 83.3045 98.4 83.4045C98.3 83.4045 98.3 83.4045 98.2 83.4045Z" fill="#030047"/>
<path d="M44.5 267.005C44.3 267.005 44 266.905 43.9 266.705L26 241.205C25.8 240.905 25.8 240.405 26.2 240.205C26.5 240.005 27 240.004 27.2 240.404L45.1001 265.904C45.3001 266.204 45.3 266.704 44.9 266.904C44.8 267.004 44.7 267.005 44.5 267.005Z" fill="#5F5FFF"/>
<path d="M37.1 267.005C37 267.005 36.8 267.005 36.7 266.905L23.7 258.105C23.4 257.905 23.3 257.405 23.5 257.105C23.7 256.805 24.2 256.705 24.5 256.905L37.5 265.705C37.8 265.905 37.9 266.405 37.7 266.705C37.6 266.905 37.3 267.005 37.1 267.005Z" fill="#5F5FFF"/>
</svg>
