<svg width="135" height="23" viewBox="0 0 135 23" fill="none" xmlns="http://www.w3.org/2000/svg">
<path d="M6.67 0H16.33C20.01 0 23 2.99 23 6.67V16.33C23 18.099 22.2973 19.7955 21.0464 21.0464C19.7955 22.2973 18.099 23 16.33 23H6.67C2.99 23 0 20.01 0 16.33V6.67C0 4.90101 0.70273 3.20447 1.9536 1.9536C3.20447 0.70273 4.90101 0 6.67 0ZM6.44 2.3C5.342 2.3 4.28898 2.73618 3.51258 3.51258C2.73618 4.28898 2.3 5.342 2.3 6.44V16.56C2.3 18.8485 4.1515 20.7 6.44 20.7H16.56C17.658 20.7 18.711 20.2638 19.4874 19.4874C20.2638 18.711 20.7 17.658 20.7 16.56V6.44C20.7 4.1515 18.8485 2.3 16.56 2.3H6.44ZM17.5375 4.025C17.9187 4.025 18.2844 4.17645 18.554 4.44603C18.8235 4.71562 18.975 5.08125 18.975 5.4625C18.975 5.84375 18.8235 6.20938 18.554 6.47897C18.2844 6.74855 17.9187 6.9 17.5375 6.9C17.1562 6.9 16.7906 6.74855 16.521 6.47897C16.2514 6.20938 16.1 5.84375 16.1 5.4625C16.1 5.08125 16.2514 4.71562 16.521 4.44603C16.7906 4.17645 17.1562 4.025 17.5375 4.025ZM11.5 5.75C13.025 5.75 14.4875 6.3558 15.5659 7.43414C16.6442 8.51247 17.25 9.975 17.25 11.5C17.25 13.025 16.6442 14.4875 15.5659 15.5659C14.4875 16.6442 13.025 17.25 11.5 17.25C9.975 17.25 8.51247 16.6442 7.43414 15.5659C6.3558 14.4875 5.75 13.025 5.75 11.5C5.75 9.975 6.3558 8.51247 7.43414 7.43414C8.51247 6.3558 9.975 5.75 11.5 5.75ZM11.5 8.05C10.585 8.05 9.70748 8.41348 9.06048 9.06048C8.41348 9.70748 8.05 10.585 8.05 11.5C8.05 12.415 8.41348 13.2925 9.06048 13.9395C9.70748 14.5865 10.585 14.95 11.5 14.95C12.415 14.95 13.2925 14.5865 13.9395 13.9395C14.5865 13.2925 14.95 12.415 14.95 11.5C14.95 10.585 14.5865 9.70748 13.9395 9.06048C13.2925 8.41348 12.415 8.05 11.5 8.05Z" fill="white"/>
<path d="M46.5 0C44.9898 0 43.4944 0.304841 42.0991 0.897119C40.7039 1.4894 39.4361 2.35751 38.3683 3.4519C36.2116 5.66211 35 8.6598 35 11.7855C35 16.9947 38.3005 21.4143 42.866 22.9817C43.441 23.076 43.625 22.7107 43.625 22.3925C43.625 22.1214 43.625 21.3789 43.625 20.4007C40.4395 21.1078 39.761 18.8215 39.761 18.8215C39.232 17.4543 38.4845 17.089 38.4845 17.089C37.438 16.3583 38.565 16.3819 38.565 16.3819C39.715 16.4644 40.3245 17.5958 40.3245 17.5958C41.325 19.3872 43.0155 18.8568 43.671 18.574C43.7745 17.8079 44.0735 17.2893 44.3955 16.9947C41.8425 16.7001 39.163 15.6865 39.163 11.1962C39.163 9.88804 39.6 8.83913 40.3475 8.00236C40.2325 7.70772 39.83 6.48203 40.4625 4.89099C40.4625 4.89099 41.4285 4.57278 43.625 6.09311C44.5335 5.83383 45.5225 5.70419 46.5 5.70419C47.4775 5.70419 48.4665 5.83383 49.375 6.09311C51.5715 4.57278 52.5375 4.89099 52.5375 4.89099C53.17 6.48203 52.7675 7.70772 52.6525 8.00236C53.4 8.83913 53.837 9.88804 53.837 11.1962C53.837 15.6983 51.146 16.6883 48.5815 16.9829C48.9955 17.3483 49.375 18.0672 49.375 19.1632C49.375 20.7425 49.375 22.0153 49.375 22.3925C49.375 22.7107 49.559 23.0878 50.1455 22.9817C54.711 21.4025 58 16.9947 58 11.7855C58 10.2378 57.7025 8.70527 57.1246 7.27539C56.5467 5.84551 55.6996 4.54628 54.6317 3.4519C53.5639 2.35751 52.2961 1.4894 50.9009 0.897119C49.5056 0.304841 48.0102 0 46.5 0Z" fill="white"/>
<path d="M97 20.125H94V7.54688L85 12.9375L76 7.54688V20.125H73V2.875H74.8L85 8.98438L95.2 2.875H97M97 0H73C71.335 0 70 1.27937 70 2.875V20.125C70 20.8875 70.3161 21.6188 70.8787 22.1579C71.4413 22.6971 72.2044 23 73 23H97C97.7956 23 98.5587 22.6971 99.1213 22.1579C99.6839 21.6188 100 20.8875 100 20.125V2.875C100 1.27937 98.65 0 97 0Z" fill="white"/>
<path d="M132.444 0C133.122 0 133.772 0.269245 134.251 0.748505C134.731 1.22776 135 1.87778 135 2.55556V20.4444C135 21.1222 134.731 21.7722 134.251 22.2515C133.772 22.7308 133.122 23 132.444 23H114.556C113.878 23 113.228 22.7308 112.749 22.2515C112.269 21.7722 112 21.1222 112 20.4444V2.55556C112 1.87778 112.269 1.22776 112.749 0.748505C113.228 0.269245 113.878 0 114.556 0H132.444ZM131.806 19.8056V13.0333C131.806 11.9286 131.367 10.869 130.585 10.0878C129.804 9.30665 128.745 8.86778 127.64 8.86778C126.554 8.86778 125.289 9.53222 124.676 10.5289V9.11056H121.111V19.8056H124.676V13.5061C124.676 12.5222 125.468 11.7172 126.452 11.7172C126.926 11.7172 127.381 11.9057 127.717 12.2412C128.052 12.5767 128.241 13.0317 128.241 13.5061V19.8056H131.806ZM116.958 7.10445C117.527 7.10445 118.073 6.87828 118.476 6.4757C118.878 6.07312 119.104 5.52711 119.104 4.95778C119.104 3.76944 118.146 2.79833 116.958 2.79833C116.385 2.79833 115.836 3.02585 115.431 3.43082C115.026 3.83579 114.798 4.38506 114.798 4.95778C114.798 6.14611 115.769 7.10445 116.958 7.10445ZM118.734 19.8056V9.11056H115.194V19.8056H118.734Z" fill="white"/>
</svg>
