<svg width="1054" height="440" viewBox="0 0 1054 440" fill="none" xmlns="http://www.w3.org/2000/svg">
<g filter="url(#filter0_d_1_29)">
<path d="M-132 -44.9653C33.8863 21.9491 123.305 110.201 174.876 182.398C217.865 242.588 217.102 267.21 262.751 312.117C361.812 409.563 551.576 476.762 643.546 393.02C688.85 351.769 672.092 299.492 693.762 200.529C713.257 111.505 763.661 -10.9338 904.384 -144" stroke="#303032" stroke-opacity="0.7" stroke-width="0.903173" stroke-miterlimit="10"/>
<path d="M-131.668 -23.3763C29.6835 34.1314 118.208 117.155 169.752 184.722C213.121 241.59 216.647 264.33 265.134 308.465C366.849 401.051 545.061 465.51 637.16 387.373C684.6 347.13 673.808 295.747 699.199 197.075C721.553 110.204 772.986 -10.1412 911.284 -142.014" stroke="#303032" stroke-opacity="0.7" stroke-width="0.903173" stroke-miterlimit="10"/>
<path d="M-131.336 -1.79044C25.4782 46.3137 113.177 124.13 164.637 187.046C208.476 240.644 216.115 261.453 267.527 304.813C371.67 392.646 538.831 454.407 630.789 381.729C680.466 342.464 675.456 292.053 704.648 193.623C729.773 108.927 782.324 -9.3397 918.205 -140.013" stroke="#303032" stroke-opacity="0.7" stroke-width="0.903173" stroke-miterlimit="10"/>
<path d="M-131.005 19.7985C21.2726 58.4989 108.233 131.126 159.522 189.388C203.887 239.756 215.495 258.596 269.931 301.158C376.297 384.361 532.869 443.472 624.424 376.082C676.443 337.798 677.029 288.401 710.106 190.168C737.884 107.668 791.671 -8.53812 925.114 -138.021" stroke="#303032" stroke-opacity="0.7" stroke-width="0.903173" stroke-miterlimit="10"/>
<path d="M-130.672 41.3844C17.0833 70.6752 103.391 138.122 154.409 191.697C199.378 238.915 214.827 255.767 272.307 297.506C380.71 376.199 527.125 432.717 618.033 370.435C672.499 333.123 678.49 284.773 715.539 186.714C745.88 106.415 800.995 -7.73959 932.006 -136.014" stroke="#303032" stroke-opacity="0.7" stroke-width="0.903173" stroke-miterlimit="10"/>
<path d="M-130.34 62.9705C12.8659 82.8576 98.6595 145.121 149.294 194.021C194.963 238.126 214.049 252.979 274.7 293.851C384.975 368.171 521.615 422.143 611.656 364.791C668.667 328.475 679.851 281.163 720.986 183.259C753.788 105.158 810.33 -6.93792 938.915 -134.037" stroke="#303032" stroke-opacity="0.7" stroke-width="0.903173" stroke-miterlimit="10"/>
<path d="M-130.008 84.5565C8.66036 95.025 94.0591 152.09 144.179 196.345C190.65 237.378 213.22 250.239 277.09 290.199C389.102 360.275 516.303 411.762 605.279 359.144C664.928 323.869 681.149 277.553 726.432 179.808C761.603 103.89 819.676 -6.13627 945.821 -132.042" stroke="#303032" stroke-opacity="0.7" stroke-width="0.903173" stroke-miterlimit="10"/>
<path d="M-129.665 106.146C4.46629 107.219 89.6138 159.026 139.076 198.669C186.468 236.654 212.355 247.559 279.491 286.547C393.119 352.513 511.182 401.569 598.914 353.497C661.294 319.319 682.341 273.937 731.89 176.353C769.322 102.607 828.999 -5.32571 952.73 -130.05" stroke="#303032" stroke-opacity="0.7" stroke-width="0.903173" stroke-miterlimit="10"/>
<path d="M-129.344 127.731C0.249254 119.402 85.301 165.896 133.949 200.996C182.404 235.942 211.392 244.963 281.872 282.892C397.025 344.883 506.196 391.567 592.525 347.853C657.729 314.845 683.412 270.291 737.325 172.898C776.961 101.297 838.334 -4.53614 959.654 -128.058" stroke="#303032" stroke-opacity="0.7" stroke-width="0.903173" stroke-miterlimit="10"/>
<path d="M-129.012 149.308C-3.95318 131.575 81.1584 172.668 128.835 203.311C178.464 235.207 210.405 242.397 284.262 279.231C400.844 337.37 501.336 381.738 586.148 342.197C654.238 310.454 684.399 266.6 742.771 169.435C784.52 99.9451 847.671 -3.74357 966.545 -126.075" stroke="#303032" stroke-opacity="0.7" stroke-width="0.903173" stroke-miterlimit="10"/>
<path d="M-128.68 170.906C-8.14261 143.766 77.1784 179.344 123.724 205.644C174.685 234.441 209.383 239.941 286.655 275.585C404.614 329.997 496.59 372.11 579.772 336.562C650.829 306.195 685.289 262.876 748.219 165.989C792.004 98.5753 857.007 -2.93295 973.455 -124.068" stroke="#303032" stroke-opacity="0.7" stroke-width="0.903173" stroke-miterlimit="10"/>
<path d="M-128.347 192.492C-12.3628 155.945 73.35 185.867 118.61 207.968C171.048 233.577 208.339 237.561 289.045 271.933C408.338 322.732 491.93 362.644 573.396 330.915C647.485 302.061 686.087 259.084 753.666 162.538C799.428 97.1545 866.342 -2.13438 980.362 -122.079" stroke="#303032" stroke-opacity="0.7" stroke-width="0.903173" stroke-miterlimit="10"/>
<path d="M-128.016 214.081C-16.5684 168.128 69.6528 192.223 113.495 210.295C167.548 232.575 207.244 235.261 291.438 268.281C412.031 315.578 487.33 353.345 567.022 325.268C644.189 298.08 686.799 255.222 759.112 159.083C806.794 95.689 875.677 -1.33277 987.271 -120.087" stroke="#303032" stroke-opacity="0.7" stroke-width="0.903173" stroke-miterlimit="10"/>
<path d="M-127.684 235.667C-20.7714 180.31 66.066 198.394 108.379 212.619C164.17 231.375 206.143 233.047 293.821 264.626C415.698 308.522 482.765 344.187 560.638 319.624C640.955 294.276 687.42 251.277 764.552 155.628C814.116 94.1726 885.011 -0.540132 994.176 -118.086" stroke="#303032" stroke-opacity="0.7" stroke-width="0.903173" stroke-miterlimit="10"/>
<path d="M-127.352 257.253C-24.9766 192.489 62.5517 204.364 103.253 214.943C160.871 229.916 205.019 230.918 296.208 260.974C419.362 301.565 478.219 335.204 554.255 313.977C637.749 290.669 687.971 247.245 769.993 152.165C821.384 92.5963 894.337 0.258399 1001.07 -116.112" stroke="#303032" stroke-opacity="0.7" stroke-width="0.903173" stroke-miterlimit="10"/>
<path d="M-127.02 278.842C-29.1672 204.672 59.067 210.13 98.1503 217.267C157.641 228.13 203.909 228.875 298.609 257.319C423.035 294.706 473.69 326.348 547.891 308.333C634.584 287.28 688.467 243.13 775.451 148.722C828.649 90.984 903.684 1.06888 1007.99 -114.108" stroke="#303032" stroke-opacity="0.7" stroke-width="0.903173" stroke-miterlimit="10"/>
<path d="M-126.673 300.428C-33.3725 216.854 55.9863 226.515 93.0506 219.594C153.675 208.27 202.802 226.919 301.017 253.667C426.728 287.911 469.132 317.623 541.514 302.686C631.42 284.142 688.895 238.892 780.898 145.268C835.875 89.3182 913.019 1.87061 1014.9 -112.104" stroke="#303032" stroke-opacity="0.7" stroke-width="0.903173" stroke-miterlimit="10"/>
<path d="M-126.356 322.014C-37.589 229.036 52.8346 230.014 87.9219 221.918C149.42 207.728 201.666 225.043 303.393 250.015C430.435 281.211 464.52 309.027 535.138 297.039C628.247 281.253 689.272 234.564 786.345 141.807C843.09 87.5894 922.354 2.66321 1021.81 -110.13" stroke="#303032" stroke-opacity="0.7" stroke-width="0.903173" stroke-miterlimit="10"/>
<path d="M-126.024 343.603C-41.7945 241.216 49.2691 233.17 82.8071 224.242C145.412 207.579 200.55 223.252 305.785 246.375C434.162 274.568 459.851 300.53 528.761 291.41C625.05 278.666 689.607 230.143 791.791 138.373C850.292 85.8366 931.692 3.47969 1028.72 -108.117" stroke="#303032" stroke-opacity="0.7" stroke-width="0.903173" stroke-miterlimit="10"/>
<path d="M-125.692 365.189C-46.0002 253.398 44.2111 231.492 77.6952 226.566C143.65 216.884 199.452 221.535 308.178 242.717C437.927 267.982 455.101 292.119 522.387 285.757C621.801 276.348 689.906 225.579 797.244 134.904C857.5 83.9972 941.033 4.27238 1035.63 -106.14" stroke="#303032" stroke-opacity="0.7" stroke-width="0.903173" stroke-miterlimit="10"/>
<path d="M-125.36 386.775C-50.2055 265.58 40.0417 236.57 72.5776 228.893C139.471 213.109 198.361 219.896 310.565 239.062C441.717 261.455 450.244 283.801 516.007 280.11C618.481 274.362 690.181 220.949 802.684 131.458C864.699 82.1277 950.361 5.07982 1042.53 -104.139" stroke="#303032" stroke-opacity="0.7" stroke-width="0.903173" stroke-miterlimit="10"/>
<path d="M-125.029 408.364C-54.4082 277.762 35.5877 241.655 67.4627 231.217C134.909 209.119 197.29 218.328 312.957 235.404C445.551 254.977 445.273 275.549 509.633 274.46C615.065 272.666 690.435 216.193 808.134 128.001C871.91 80.2165 959.696 5.87244 1049.44 -102.153" stroke="#303032" stroke-opacity="0.7" stroke-width="0.903173" stroke-miterlimit="10"/>
</g>
<defs>
<filter id="filter0_d_1_29" x="-136.169" y="-144.328" width="1189.96" height="583.779" filterUnits="userSpaceOnUse" color-interpolation-filters="sRGB">
<feFlood flood-opacity="0" result="BackgroundImageFix"/>
<feColorMatrix in="SourceAlpha" type="matrix" values="0 0 0 0 0 0 0 0 0 0 0 0 0 0 0 0 0 0 127 0" result="hardAlpha"/>
<feOffset dy="4"/>
<feGaussianBlur stdDeviation="2"/>
<feComposite in2="hardAlpha" operator="out"/>
<feColorMatrix type="matrix" values="0 0 0 0 0 0 0 0 0 0 0 0 0 0 0 0 0 0 0.25 0"/>
<feBlend mode="normal" in2="BackgroundImageFix" result="effect1_dropShadow_1_29"/>
<feBlend mode="normal" in="SourceGraphic" in2="effect1_dropShadow_1_29" result="shape"/>
</filter>
</defs>
</svg>
