<svg width="49" height="49" viewBox="0 0 49 49" fill="none" xmlns="http://www.w3.org/2000/svg">
<path d="M24.5 0C10.976 0 0 10.976 0 24.5C0 38.024 10.976 49 24.5 49C38.024 49 49 38.024 49 24.5C49 10.976 38.024 0 24.5 0ZM24.5 7.35C28.567 7.35 31.85 10.633 31.85 14.7C31.85 18.767 28.567 22.05 24.5 22.05C20.433 22.05 17.15 18.767 17.15 14.7C17.15 10.633 20.433 7.35 24.5 7.35ZM24.5 42.14C18.375 42.14 12.9605 39.004 9.8 34.251C9.8735 29.3755 19.6 26.705 24.5 26.705C29.3755 26.705 39.1265 29.3755 39.2 34.251C36.0395 39.004 30.625 42.14 24.5 42.14Z" fill="white" fill-opacity="0.9"/>
</svg>
