<svg width="31" height="31" viewBox="0 0 31 31" fill="none" xmlns="http://www.w3.org/2000/svg">
<g filter="url(#filter0_d_220_752)">
<path d="M15.5 0C13.9898 0 12.4944 0.304841 11.0991 0.897119C9.7039 1.4894 8.43615 2.35751 7.36827 3.4519C5.2116 5.66211 4 8.6598 4 11.7855C4 16.9947 7.3005 21.4143 11.866 22.9817C12.441 23.076 12.625 22.7107 12.625 22.3925C12.625 22.1214 12.625 21.3789 12.625 20.4007C9.4395 21.1078 8.761 18.8215 8.761 18.8215C8.232 17.4543 7.4845 17.089 7.4845 17.089C6.438 16.3583 7.565 16.3819 7.565 16.3819C8.715 16.4644 9.3245 17.5958 9.3245 17.5958C10.325 19.3872 12.0155 18.8568 12.671 18.574C12.7745 17.8079 13.0735 17.2893 13.3955 16.9947C10.8425 16.7001 8.163 15.6865 8.163 11.1962C8.163 9.88804 8.6 8.83913 9.3475 8.00236C9.2325 7.70772 8.83 6.48203 9.4625 4.89099C9.4625 4.89099 10.4285 4.57278 12.625 6.09311C13.5335 5.83383 14.5225 5.70419 15.5 5.70419C16.4775 5.70419 17.4665 5.83383 18.375 6.09311C20.5715 4.57278 21.5375 4.89099 21.5375 4.89099C22.17 6.48203 21.7675 7.70772 21.6525 8.00236C22.4 8.83913 22.837 9.88804 22.837 11.1962C22.837 15.6983 20.146 16.6883 17.5815 16.9829C17.9955 17.3483 18.375 18.0672 18.375 19.1632C18.375 20.7425 18.375 22.0153 18.375 22.3925C18.375 22.7107 18.559 23.0878 19.1455 22.9817C23.711 21.4025 27 16.9947 27 11.7855C27 10.2378 26.7025 8.70527 26.1246 7.27539C25.5467 5.84551 24.6996 4.54628 23.6317 3.4519C22.5639 2.35751 21.2961 1.4894 19.9009 0.897119C18.5056 0.304841 17.0102 0 15.5 0Z" fill="white"/>
</g>
<defs>
<filter id="filter0_d_220_752" x="0" y="0" width="31" height="31" filterUnits="userSpaceOnUse" color-interpolation-filters="sRGB">
<feFlood flood-opacity="0" result="BackgroundImageFix"/>
<feColorMatrix in="SourceAlpha" type="matrix" values="0 0 0 0 0 0 0 0 0 0 0 0 0 0 0 0 0 0 127 0" result="hardAlpha"/>
<feOffset dy="4"/>
<feGaussianBlur stdDeviation="2"/>
<feComposite in2="hardAlpha" operator="out"/>
<feColorMatrix type="matrix" values="0 0 0 0 0 0 0 0 0 0 0 0 0 0 0 0 0 0 0.25 0"/>
<feBlend mode="normal" in2="BackgroundImageFix" result="effect1_dropShadow_220_752"/>
<feBlend mode="normal" in="SourceGraphic" in2="effect1_dropShadow_220_752" result="shape"/>
</filter>
</defs>
</svg>
