<svg width="38" height="26" viewBox="0 0 38 26" fill="none" xmlns="http://www.w3.org/2000/svg">
<path d="M19 0C10.3636 0 2.98818 5.39067 0 13C2.98818 20.6093 10.3636 26 19 26C27.6364 26 35.0118 20.6093 38 13C35.0118 5.39067 27.6364 0 19 0ZM19 21.6667C14.2327 21.6667 10.3636 17.784 10.3636 13C10.3636 8.216 14.2327 4.33333 19 4.33333C23.7673 4.33333 27.6364 8.216 27.6364 13C27.6364 17.784 23.7673 21.6667 19 21.6667ZM19 7.8C16.1327 7.8 13.8182 10.1227 13.8182 13C13.8182 15.8773 16.1327 18.2 19 18.2C21.8673 18.2 24.1818 15.8773 24.1818 13C24.1818 10.1227 21.8673 7.8 19 7.8Z" fill="black"/>
</svg>
